<svg width="416" height="416" viewBox="0 0 416 416" fill="none" xmlns="http://www.w3.org/2000/svg">
<path d="M208.203 150.719C219.309 150.719 228.312 141.715 228.312 130.609C228.312 119.503 219.309 110.5 208.203 110.5C197.097 110.5 188.094 119.503 188.094 130.609C188.094 141.715 197.097 150.719 208.203 150.719Z" fill="#3551A4"/>
<path d="M297.781 292.094C297.781 292.094 336.375 253.906 336.375 182.041C336.375 114.258 278.899 59.3125 208 59.3125C137.101 59.3125 79.625 114.262 79.625 182.041C79.625 257.156 160.469 324.188 201.906 370.906C201.906 370.906 244.022 323.51 269.742 241.305C274.211 227.086 275.543 189.809 258.359 177.191C253.407 173.555 247.772 171.32 241.999 171.341C239.797 171.349 237.778 171.613 236.052 172.174C227.09 175.09 217.649 180.896 209.337 189.208C198.47 200.075 191.888 212.868 190.446 224.003C189.004 235.138 197.746 244.644 208.813 244.612C219.834 244.579 228.471 234.935 227.078 224.003C225.656 212.851 219.07 200.026 208.179 189.139C199.68 180.64 190.003 174.761 180.863 171.918C177.418 170.845 173.026 170.922 168.192 172.137C158.978 174.449 151.04 183.76 146.868 194.302C141.944 206.75 144.223 239.29 144.223 257.978M228.312 130.609C228.312 141.715 219.309 150.719 208.203 150.719C197.097 150.719 188.094 141.715 188.094 130.609C188.094 119.503 197.097 110.5 208.203 110.5C219.309 110.5 228.312 119.503 228.312 130.609Z" stroke="#3551A4" stroke-width="16.25" stroke-linecap="round" stroke-linejoin="round"/>
</svg>
