<svg width="493" height="150" viewBox="0 0 493 150" fill="none" xmlns="http://www.w3.org/2000/svg">
<path d="M73.0957 125.908C60.1465 111.309 34.8828 90.3613 34.8828 66.8877C34.8828 45.7068 52.8441 28.5352 75 28.5352C97.1559 28.5352 115.117 45.7056 115.117 66.8877C115.117 89.3457 103.057 101.279 103.057 101.279" stroke="#F6F6F6" stroke-width="6.34766" stroke-linecap="round" stroke-linejoin="round"/>
<path d="M73.0957 125.908C73.0957 125.908 86.2569 111.097 94.2943 85.4076C95.6908 80.9642 96.1072 69.315 90.7371 65.3719C89.1896 64.2356 87.4287 63.5374 85.6247 63.5437C84.9366 63.5463 84.3057 63.6288 83.7661 63.804C80.9655 64.7155 78.0151 66.5297 75.4177 69.1271C72.0217 72.5231 69.965 76.5209 69.5144 80.0007C69.0637 83.4805 71.7957 86.4512 75.2539 86.441C78.6981 86.4308 81.3972 83.417 80.9617 80.0007C80.5174 76.5158 78.4595 72.5079 75.0559 69.1056C72.4 66.4497 69.376 64.6127 66.5195 63.724C65.443 63.3889 64.0706 63.413 62.5599 63.7926C59.6806 64.5149 57.1999 67.4247 55.8961 70.7191C54.3574 74.609 55.0696 84.7779 55.0696 90.6178" stroke="#F6F6F6" stroke-width="6.34766" stroke-linecap="round" stroke-linejoin="round"/>
<path d="M75.0635 57.0996C78.5341 57.0996 81.3477 54.2861 81.3477 50.8154C81.3477 47.3448 78.5341 44.5312 75.0635 44.5312C71.5928 44.5312 68.7793 47.3448 68.7793 50.8154C68.7793 54.2861 71.5928 57.0996 75.0635 57.0996Z" fill="#F6F6F6" stroke="#F6F6F6" stroke-width="5.07812" stroke-linecap="round" stroke-linejoin="round"/>
<path d="M155.316 102V62.1311H168.136V102H155.316ZM161.726 56.2289C159.668 56.2289 157.87 55.5905 156.332 54.3136C154.821 53.0107 154.065 51.2779 154.065 49.115C154.065 46.9001 154.821 45.1542 156.332 43.8774C157.87 42.6005 159.668 41.9621 161.726 41.9621C163.811 41.9621 165.609 42.6005 167.12 43.8774C168.632 45.1542 169.387 46.9001 169.387 49.115C169.387 51.2779 168.632 53.0107 167.12 54.3136C165.609 55.5905 163.811 56.2289 161.726 56.2289ZM180.393 102V62.1311H193.213V67.0561C194.177 65.701 195.311 64.5805 196.614 63.6946C197.917 62.7825 199.311 62.105 200.796 61.662C202.282 61.193 203.78 60.9585 205.291 60.9585C208.21 60.9585 210.724 61.6229 212.835 62.9519C214.972 64.2548 216.431 66.0137 217.213 68.2287C218.776 65.701 220.874 63.8639 223.506 62.7174C226.138 61.5448 228.939 60.9585 231.91 60.9585C235.766 60.9585 238.802 61.7011 241.017 63.1864C243.232 64.6457 244.795 66.5479 245.707 68.8932C246.646 71.2123 247.115 73.6748 247.115 76.2806V102H234.294V79.9548C234.294 77.7138 233.708 75.9288 232.535 74.5999C231.362 73.2449 229.656 72.5673 227.415 72.5673C226.007 72.5673 224.757 72.867 223.662 73.4664C222.568 74.0657 221.708 74.8735 221.082 75.8898C220.483 76.88 220.183 78.0005 220.183 79.2513V102H207.363V79.9548C207.363 77.7138 206.764 75.9288 205.565 74.5999C204.392 73.2449 202.698 72.5673 200.484 72.5673C199.05 72.5673 197.787 72.867 196.692 73.4664C195.598 74.0657 194.738 74.8735 194.112 75.8898C193.513 76.88 193.213 78.0005 193.213 79.2513V102H180.393ZM258.985 118.417V62.1311H270.047V66.7043C271.532 64.9584 273.422 63.5643 275.715 62.5219C278.034 61.4796 280.718 60.9585 283.767 60.9585C287.571 60.9585 290.959 61.8314 293.929 63.5773C296.926 65.3232 299.284 67.7857 301.004 70.9648C302.724 74.1439 303.584 77.8441 303.584 82.0655C303.584 85.0362 303.089 87.8114 302.099 90.3911C301.134 92.9448 299.753 95.1858 297.955 97.1141C296.157 99.0163 294.034 100.502 291.584 101.57C289.161 102.638 286.477 103.173 283.532 103.173C281.187 103.173 279.024 102.795 277.044 102.039C275.089 101.283 273.33 100.215 271.767 98.8339V118.417H258.985ZM281.382 92.15C283.233 92.15 284.887 91.7461 286.346 90.9383C287.806 90.1045 288.952 88.9319 289.786 87.4205C290.62 85.9091 291.037 84.1241 291.037 82.0655C291.037 79.9809 290.607 78.1959 289.747 76.7106C288.913 75.1992 287.767 74.0396 286.307 73.2318C284.874 72.398 283.233 71.981 281.382 71.981C279.558 71.981 277.917 72.398 276.457 73.2318C274.998 74.0396 273.852 75.1992 273.018 76.7106C272.184 78.1959 271.767 79.9809 271.767 82.0655C271.767 84.1241 272.184 85.9091 273.018 87.4205C273.852 88.9319 274.985 90.1045 276.418 90.9383C277.878 91.7461 279.532 92.15 281.382 92.15ZM323.832 103.173C321.174 103.173 318.79 102.664 316.679 101.648C314.569 100.606 312.901 99.1336 311.676 97.2314C310.451 95.3031 309.839 92.9969 309.839 90.3129C309.839 88.0198 310.399 85.9873 311.52 84.2153C312.666 82.4434 314.386 80.9841 316.679 79.8376C318.972 78.691 321.852 77.9223 325.318 77.5314C328.809 77.1145 332.888 77.1145 337.552 77.5314L337.669 85.5052C335.194 85.0622 332.953 84.8407 330.946 84.8407C328.966 84.8147 327.272 84.984 325.865 85.3489C324.484 85.6876 323.415 86.2218 322.66 86.9514C321.904 87.6811 321.526 88.5801 321.526 89.6484C321.526 91.0295 322.047 92.0849 323.09 92.8145C324.158 93.5441 325.578 93.909 327.35 93.909C328.888 93.909 330.269 93.6353 331.493 93.0881C332.744 92.5409 333.734 91.7461 334.464 90.7038C335.22 89.6354 335.598 88.3325 335.598 86.7951V77.6878C335.598 76.2546 335.298 74.9908 334.699 73.8963C334.099 72.8019 333.148 71.955 331.845 71.3556C330.568 70.7303 328.862 70.4176 326.725 70.4176C324.666 70.4176 322.621 70.7303 320.588 71.3556C318.556 71.955 316.731 72.867 315.116 74.0917L311.833 65.2971C314.412 63.6815 317.174 62.4959 320.119 61.7402C323.064 60.9585 325.956 60.5676 328.796 60.5676C332.549 60.5676 335.845 61.1669 338.685 62.3656C341.552 63.5643 343.793 65.4144 345.408 67.916C347.024 70.4176 347.832 73.6227 347.832 77.5314V102H336.77V97.7786C335.493 99.4984 333.734 100.827 331.493 101.765C329.252 102.704 326.699 103.173 323.832 103.173ZM378.443 103.173C374.222 103.173 370.443 102.261 367.108 100.437C363.799 98.5864 361.18 96.0718 359.251 92.8927C357.323 89.6875 356.359 86.0785 356.359 82.0655C356.359 79.0428 356.919 76.2546 358.04 73.7009C359.186 71.1472 360.789 68.9192 362.847 67.017C364.906 65.0887 367.303 63.6034 370.039 62.561C372.776 61.4926 375.746 60.9585 378.951 60.9585C381.974 60.9585 384.775 61.3754 387.355 62.2092C389.935 63.017 392.254 64.2418 394.313 65.8834L388.684 75.3816C387.407 74.209 386 73.3491 384.463 72.8019C382.951 72.2547 381.362 71.981 379.694 71.981C377.505 71.981 375.616 72.3719 374.026 73.1537C372.437 73.9354 371.212 75.082 370.352 76.5933C369.518 78.1047 369.101 79.9157 369.101 82.0264C369.101 85.2055 370.039 87.6941 371.916 89.4921C373.818 91.2641 376.424 92.15 379.733 92.15C381.609 92.15 383.368 91.8113 385.01 91.1338C386.678 90.4302 388.202 89.4139 389.583 88.085L394.782 97.7786C392.541 99.4463 389.974 100.762 387.081 101.726C384.215 102.691 381.336 103.173 378.443 103.173ZM420.55 103.173C416.121 103.173 412.642 101.935 410.114 99.4593C407.587 96.9578 406.323 93.2314 406.323 88.2804V50.7176H419.143V62.1311H428.485V72.2937H419.143V86.0524C419.143 88.1892 419.612 89.6875 420.55 90.5475C421.489 91.4074 422.7 91.8373 424.186 91.8373C424.993 91.8373 425.788 91.7461 426.57 91.5637C427.378 91.3553 428.12 91.0556 428.798 90.6647L430.44 100.71C429.215 101.388 427.743 101.961 426.023 102.43C424.303 102.925 422.479 103.173 420.55 103.173ZM398.583 72.2937V62.1311H407.495V72.2937H398.583ZM458.64 103.173C454.289 103.173 450.445 102.221 447.11 100.319C443.774 98.3909 441.155 95.8242 439.253 92.6191C437.377 89.4139 436.439 85.8961 436.439 82.0655C436.439 79.2773 436.973 76.6194 438.041 74.0917C439.136 71.5381 440.673 69.284 442.654 67.3297C444.634 65.3492 446.979 63.7988 449.689 62.6783C452.399 61.5317 455.383 60.9585 458.64 60.9585C462.992 60.9585 466.836 61.9226 470.171 63.8509C473.507 65.7531 476.112 68.3068 477.989 71.512C479.865 74.7171 480.803 78.235 480.803 82.0655C480.803 84.8538 480.269 87.5247 479.2 90.0784C478.132 92.606 476.607 94.847 474.627 96.8014C472.647 98.7558 470.301 100.306 467.591 101.453C464.881 102.599 461.898 103.173 458.64 103.173ZM458.64 92.15C460.464 92.15 462.106 91.7461 463.565 90.9383C465.025 90.1045 466.171 88.9319 467.005 87.4205C467.839 85.9091 468.256 84.1241 468.256 82.0655C468.256 79.9809 467.839 78.1959 467.005 76.7106C466.197 75.1992 465.064 74.0396 463.604 73.2318C462.145 72.398 460.49 71.981 458.64 71.981C456.79 71.981 455.136 72.398 453.676 73.2318C452.217 74.0396 451.07 75.1992 450.237 76.7106C449.403 78.1959 448.986 79.9809 448.986 82.0655C448.986 84.1241 449.403 85.9091 450.237 87.4205C451.097 88.9319 452.256 90.1045 453.715 90.9383C455.175 91.7461 456.816 92.15 458.64 92.15Z" fill="#F6F6F6"/>
</svg>
