<svg width="25" height="25" viewBox="0 0 25 25" fill="none" xmlns="http://www.w3.org/2000/svg">
<path d="M19.07 11.63H13.82C13.58 11.63 13.38 11.43 13.38 11.19V5.94C13.38 5.7 13.18 5.5 12.94 5.5H12.06C11.82 5.5 11.62 5.7 11.62 5.94V11.19C11.62 11.43 11.42 11.63 11.18 11.63H5.92999C5.68999 11.63 5.48999 11.83 5.48999 12.07V12.95C5.48999 13.19 5.68999 13.39 5.92999 13.39H11.18C11.42 13.39 11.62 13.59 11.62 13.83V19.08C11.62 19.32 11.82 19.52 12.06 19.52H12.94C13.18 19.52 13.38 19.32 13.38 19.08V13.83C13.38 13.59 13.58 13.39 13.82 13.39H19.07C19.31 13.39 19.51 13.19 19.51 12.95V12.07C19.51 11.83 19.31 11.63 19.07 11.63Z" fill="#2E2523"/>
<path d="M19.54 2.5H5.46C3.83 2.5 2.5 3.82 2.5 5.46V19.55C2.5 21.18 3.82 22.51 5.46 22.51H19.55C21.18 22.51 22.51 21.19 22.51 19.55V5.46C22.51 3.83 21.19 2.5 19.55 2.5H19.54ZM21 19.54C21 20.34 20.35 21 19.54 21H5.46C4.66 21 4 20.35 4 19.54V5.46C4 4.66 4.65 4 5.46 4H19.55C20.35 4 21.01 4.65 21.01 5.46V19.55L21 19.54Z" fill="#2E2523"/>
</svg>
