<svg width="25" height="25" viewBox="0 0 25 25" fill="none" xmlns="http://www.w3.org/2000/svg">
<path d="M12.3201 4.31006C12.4501 4.31006 12.6401 4.34006 12.8101 4.47006C13.7401 5.19006 14.6901 6.24006 15.7001 7.35006C16.6501 8.40006 17.6301 9.49006 18.6901 10.3701C18.8401 10.5201 19.0101 10.6801 19.1901 10.8501C19.5301 11.1601 20.1501 11.7501 20.2501 12.0101C20.3301 12.2901 20.3101 12.5301 20.1701 12.7401C20.0001 12.9801 19.7001 13.1301 19.3301 13.1601L17.5701 13.2601L17.4501 15.0201C17.4101 15.6801 17.4301 16.3401 17.4501 16.9801C17.5401 19.6801 17.3501 19.7001 16.4501 19.7701C15.3801 19.8501 13.8701 19.9001 12.3101 19.9001C10.7501 19.9001 9.24005 19.8501 8.17005 19.7701C7.24005 19.7001 7.08005 19.6901 7.17005 17.0101C7.19005 16.3601 7.22005 15.6801 7.17005 15.0101L7.05005 13.3101L5.36005 13.1501C4.84005 13.1001 4.46005 12.9001 4.34005 12.6101C4.22005 12.3201 4.35005 11.9001 4.70005 11.4901C5.97005 9.99006 7.62005 8.47006 9.21005 7.00006C10.1401 6.14006 11.1001 5.26006 11.9801 4.38006C12.0901 4.34006 12.2001 4.32006 12.3201 4.32006M12.3201 2.31006C11.7901 2.31006 11.2601 2.45006 10.8001 2.73006C8.41005 5.15006 5.36005 7.62006 3.18005 10.2001C1.39005 12.3201 2.48005 14.8901 5.18005 15.1401C5.36005 17.8201 4.20005 21.4701 8.02005 21.7601C9.19005 21.8501 10.7501 21.8901 12.3101 21.8901C13.8701 21.8901 15.4301 21.8501 16.6001 21.7601C20.3901 21.4801 19.2701 17.8101 19.4501 15.1501C21.3801 15.0401 22.7501 13.3401 22.1701 11.4301C21.8801 10.4701 20.7301 9.60006 20.0401 8.90006C18.0001 7.21006 16.0801 4.46006 14.0301 2.89006C13.5301 2.51006 12.9301 2.32006 12.3201 2.32006V2.31006Z" fill="#2E2523"/>
</svg>
