<svg width="25" height="25" viewBox="0 0 25 25" fill="none" xmlns="http://www.w3.org/2000/svg">
<path d="M17.25 2.56995H17.05C16.79 2.56995 16.59 2.78995 16.59 3.04995V3.73995H14.33V3.04995C14.33 2.77995 14.12 2.56995 13.87 2.56995H13.67C13.41 2.56995 13.21 2.78995 13.21 3.04995V3.73995H10.95V3.04995C10.95 2.77995 10.74 2.56995 10.49 2.56995H10.29C10.03 2.56995 9.83 2.78995 9.83 3.04995V3.73995H7.57V3.04995C7.57 2.77995 7.36 2.56995 7.11 2.56995H6.91C6.65 2.56995 6.45 2.78995 6.45 3.04995V3.73995H6.08C4.41 3.73995 3.06 5.13995 3.06 6.87995V19.3599C3.06 21.0899 4.41 22.4999 6.08 22.4999H18.09C19.76 22.4999 21.11 21.0999 21.11 19.3599V6.87995C21.11 5.14995 19.76 3.73995 18.09 3.73995H17.72V3.04995C17.72 2.77995 17.51 2.56995 17.26 2.56995H17.25ZM17.05 6.08995H17.25C17.51 6.08995 17.71 5.86995 17.71 5.60995V5.50995H18.08C18.81 5.50995 19.41 6.12995 19.41 6.88995V8.43995H4.75V6.88995C4.75 6.12995 5.35 5.50995 6.08 5.50995H6.45V5.60995C6.45 5.87995 6.66 6.08995 6.91 6.08995H7.11C7.37 6.08995 7.57 5.86995 7.57 5.60995V5.50995H9.83V5.60995C9.83 5.87995 10.04 6.08995 10.29 6.08995H10.49C10.75 6.08995 10.95 5.86995 10.95 5.60995V5.50995H13.21V5.60995C13.21 5.87995 13.42 6.08995 13.67 6.08995H13.87C14.13 6.08995 14.33 5.86995 14.33 5.60995V5.50995H16.59V5.60995C16.59 5.87995 16.8 6.08995 17.05 6.08995ZM6.07 20.7399C5.34 20.7399 4.74 20.1199 4.74 19.3599V9.59995H19.4V19.3599C19.4 20.1199 18.8 20.7399 18.07 20.7399H6.07Z" fill="#2E2523"/>
<path d="M12.2899 11.21L13.1799 13.96H16.0699C16.2399 13.96 16.3199 14.18 16.1799 14.28L13.8399 15.98L14.7299 18.73C14.7799 18.89 14.5999 19.03 14.4599 18.93L12.1199 17.23L9.77995 18.93C9.63995 19.03 9.44995 18.89 9.50995 18.73L10.3999 15.98L8.05995 14.28C7.91995 14.18 7.98995 13.96 8.16995 13.96H11.0599L11.9499 11.21C11.9999 11.05 12.2399 11.05 12.2899 11.21Z" fill="#2E2523"/>
</svg>
