<?xml version="1.0" encoding="UTF-8"?>
<svg xmlns="http://www.w3.org/2000/svg" version="1.1" viewBox="0 0 2100 2100">
  <defs>
    <style>
      .cls-1 {
        fill: #fff;
      }

      .cls-2 {
        fill: #ffbc00;
      }
    </style>
  </defs>
  <!-- Generator: Adobe Illustrator 28.7.1, SVG Export Plug-In . SVG Version: 1.2.0 Build 142)  -->
  <g>
    <g id="Layer_1">
      <rect class="cls-1" width="2100" height="2100"/>
      <g>
        <circle class="cls-2" cx="1025.1" cy="736.1" r="384.4"/>
        <g>
          <path d="M531.1,1069.6l26.9-.2s0,19.2.4,28.5h30.9l.2,21.6,25.9.8v19.1h60.5v78.2h-187.6v17.8h188.7v70.3h69.5v-25.4h-30.1v-44.1h145.4v68.7h69.9v-26.9h-29.2v-42.9h439.3v-18.4h-439.2v-132.1h36.4v-30.5c.1,0,32.1-.4,32.1-.4v-57.2h62.5v31.6h31.6v-65.8h-91.7v-75.6h132.6v-30.1h-109.1v-37.9h138.8v-91.9h-32v-38h-228.3l.4,37.1h-31.7v205.9h-39.4c-.9,10.8-1.7,20.1-2.7,31h-37.6c-.6,9.5-1.2,17.2-1.8,26.4h-34.4c-.8,8.8-1.4,16-2.1,23.3h-105.8c-.8-8.5-1.5-16.2-2.4-25.3h-31.5c-.6-11.9-1.1-22.3-1.7-34.3h-37.6v-78.6h-39.6v171h22.2s1,24.2,1,24.2M908.6,736.1h26.6v26.6h-26.6v-26.6ZM859.7,1215.7h-143.6v-36.9h35.9l-.3-29.5h69v28.5c-.1,0,38.9,0,38.9,0v38Z"/>
          <rect x="978.2" y="1322" width="46.9" height="15.1"/>
          <rect x="1087.7" y="1322" width="94.2" height="15.1"/>
          <rect x="1263.3" y="1265.4" width="72.2" height="15.1"/>
          <rect x="1500.6" y="1216.6" width="111.1" height="18.5"/>
          <rect x="1006" y="1279" width="112.6" height="15.1"/>
          <rect x="1530" y="1271.4" width="44.2" height="15.1"/>
          <rect x="539.5" y="1316.7" width="98.1" height="15.1"/>
          <rect x="539.5" y="1273" width="37.6" height="15.1"/>
          <path d="M1529.9,877.7h-13.6v-12.9h-24.9v12.9h-13v195c0,10.3-8.4,18.7-18.7,18.7h-1c-10.3,0-18.7-8.4-18.7-18.7v-2.9c-.2-1.8-.3-3.7-.3-5.7.4-59.8.2-119.7.2-179.5,0-24.4,0-68.5,0-83.8h-17.1v-11.6h-24.9v11.6h-16.8v150.8c0,8.7-7.1,15.9-15.9,15.9s-15.9-7.1-15.9-15.9v-82.7h-19.3v-12.4h-24.9v12.4h-18.9v147.1h10.1v9.9h10.2v10.4h38.5c3.8.1,7.7,0,11.8,0h23.7v261.4h59.3v-167.4h69.5v-9.6h10.2v-9.9h10.1v-30h0c.1-63.4,0-154.2,0-203Z"/>
        </g>
      </g>
      <g>
        <path d="M592,1454.5l-29.6,38.7v39.1c0,3.5-2.4,6.2-5.8,6.2s-5.9-2.7-5.9-6.2v-39.3l-26.7-39.1c-2-2.9-1.6-6.6,1.1-8.3,2.7-1.7,6.2-.9,8,1.9l23.3,34.3,26.3-34.6c2.1-2.8,5.6-3.3,8.3-1.3,2.8,2.1,3.2,5.6.9,8.6Z"/>
        <path d="M636.4,1539.8c-20.4,0-36.8-21.6-36.8-48.1s16.5-48.2,36.8-48.2,37,21.7,37,48.2-16.6,48.1-37,48.1ZM636.4,1455.5c-13.7,0-24.9,16.2-24.9,36.2s11.3,36.2,24.9,36.2,24.9-16.2,24.9-36.2-11.1-36.2-24.9-36.2Z"/>
        <path d="M751.7,1450.8v56.3c0,20.1-14.1,31.3-32.8,31.3s-32.8-11.3-32.8-31.3v-56.3c0-3.5,2.5-6.2,5.9-6.2s5.9,2.7,5.9,6.2v56.3c0,11.7,9.4,19.6,21,19.6s21.2-7.9,21.2-19.6v-56.3c0-3.5,2.5-6.2,5.9-6.2s5.8,2.7,5.8,6.2Z"/>
        <path d="M882.9,1537.8c-3.3,1.1-6.7-.9-7.8-3.3l-8.4-22.8h-34.2l-8.4,22.8c-1.2,2.4-4.4,4.4-7.8,3.3-2.3-.9-4.4-4.4-3.2-7.6l31.1-82.3c1.1-2,3.3-3.2,5.5-3.2s4.6,1.2,5.6,3.2l30.9,82.3c.9,3.2-1.2,6.7-3.3,7.6ZM862.3,1499.9l-12.6-34-12.7,34h25.3Z"/>
        <path d="M963.2,1537.9c-3.1,1.3-6.3.3-7.9-2.9l-19.7-40.5h-24.2v37.8c0,3.5-2.5,6.2-5.9,6.2s-6-2.7-6-6.2v-81.7c0-3.5,2.4-5.9,5.9-5.9h35.6c13.1,0,24.9,10.7,24.9,24.9s-7.8,20.8-17.8,23.8l17.7,36.3c1.6,3.3.5,6.8-2.5,8.2ZM911.3,1482.7h29.6c7.1,0,13.1-6,13.1-13.1s-6-13-13.1-13h-29.6v26.1Z"/>
        <path d="M1045.6,1532.6c0,2.4-2.3,5.9-5.9,5.9h-53.9c-3.5,0-5.9-3.5-5.9-5.9v-82.1c0-.9.1-1.9.5-2.5.8-2,2.8-3.2,5.4-3.2h49.2c3.6,0,5.9,2.3,5.9,5.9s-2.3,5.8-5.9,5.8h-43.3v27.1h30.4c3.5,0,5.9,3.5,5.9,5.8,0,3.6-2.4,5.9-5.9,5.9h-30.4v31.6h48c3.6,0,5.9,2.4,5.9,5.9Z"/>
        <path d="M1135.3,1539.8c-20.4,0-36.8-21.6-36.8-48.1s16.5-48.2,36.8-48.2,37,21.7,37,48.2-16.6,48.1-37,48.1ZM1135.3,1455.5c-13.7,0-24.9,16.2-24.9,36.2s11.3,36.2,24.9,36.2,24.9-16.2,24.9-36.2-11.1-36.2-24.9-36.2Z"/>
        <path d="M1247.7,1450.7c0,3.1-2.3,5.9-5.9,5.9h-46.2v27.2h31.9c3.5,0,6,2.7,6,5.9s-2.5,6-6,6h-31.9v36.8c0,3.5-2.4,5.9-6,5.9s-5.9-2.4-5.9-5.9v-82c0-3.5,2.3-5.9,5.9-5.9h52.2c3.6,0,5.9,2.9,5.9,6Z"/>
        <path d="M1318.5,1450.7c0,3.1-2.3,5.9-5.9,5.9h-46.2v27.2h31.9c3.5,0,6,2.7,6,5.9s-2.5,6-6,6h-31.9v36.8c0,3.5-2.4,5.9-6,5.9s-5.9-2.4-5.9-5.9v-82c0-3.5,2.3-5.9,5.9-5.9h52.2c3.6,0,5.9,2.9,5.9,6Z"/>
        <path d="M1391.6,1532.6c0,3.3-2.7,5.9-6.2,5.9h-54.4c-3.5,0-5.9-2.3-5.9-5.9v-81.7c0-3.5,2.5-6.2,6-6.2s5.9,2.7,5.9,6.2v75.8h48.4c3.5,0,6.2,2.5,6.2,5.9Z"/>
        <path d="M1410.9,1538.4c-3.5,0-5.9-2.4-5.9-5.9v-82c0-3.5,2.4-5.9,5.9-5.9s6,2.4,6,5.9v82c0,3.5-2.4,5.9-6,5.9Z"/>
        <path d="M1490.6,1538.4h-3.3c-3.8,0-5-2.7-6.6-5.6l-37.4-68.6v68.2c0,3.3-2.5,6-5.8,6s-5.9-2.7-5.9-6v-82c0-3.3,2.4-5.8,5.8-5.8h4.7c2.1,0,5,.5,7,4.4l35.8,67.7v-66c0-3.3,2.5-6,5.8-6s5.8,2.7,5.8,6v82c0,3.3-2.3,5.8-5.8,5.8Z"/>
        <path d="M1577.1,1532.6c0,2.4-2.3,5.9-5.9,5.9h-53.9c-3.5,0-5.9-3.5-5.9-5.9v-82.1c0-.9.1-1.9.5-2.5.8-2,2.8-3.2,5.4-3.2h49.2c3.6,0,5.9,2.3,5.9,5.9s-2.3,5.8-5.9,5.8h-43.3v27.1h30.4c3.5,0,5.9,3.5,5.9,5.8,0,3.6-2.4,5.9-5.9,5.9h-30.4v31.6h48c3.6,0,5.9,2.4,5.9,5.9Z"/>
      </g>
    </g>
  </g>
</svg>