<svg width="25" height="24" viewBox="0 0 25 24" fill="none" xmlns="http://www.w3.org/2000/svg">
<path d="M12.7 4C17.11 4 20.7 7.59 20.7 12C20.7 16.41 17.11 20 12.7 20C8.28995 20 4.69995 16.41 4.69995 12C4.69995 7.59 8.28995 4 12.7 4ZM12.7 2C7.17995 2 2.69995 6.48 2.69995 12C2.69995 17.52 7.17995 22 12.7 22C18.22 22 22.7 17.52 22.7 12C22.7 6.48 18.22 2 12.7 2Z" fill="#2E2523"/>
<path d="M12.7 7C13.25 7 13.7 7.45 13.7 8C13.7 8.55 13.25 9 12.7 9C12.15 9 11.7 8.55 11.7 8C11.7 7.45 12.15 7 12.7 7ZM12.7 5C11.04 5 9.69995 6.34 9.69995 8C9.69995 9.66 11.04 11 12.7 11C14.36 11 15.7 9.66 15.7 8C15.7 6.34 14.36 5 12.7 5Z" fill="#2E2523"/>
<path d="M13.7 14C14.8 14 15.7 14.9 15.7 16V20H9.69995V16C9.69995 14.9 10.6 14 11.7 14H13.7ZM15.7 20L17.7 19.63V16C17.7 13.79 15.91 12 13.7 12H11.7C9.48995 12 7.69995 13.79 7.69995 16V19.63L9.69995 20" fill="#2E2523"/>
</svg>
