<svg width="25" height="25" viewBox="0 0 25 25" fill="none" xmlns="http://www.w3.org/2000/svg">
<path d="M22.69 20.87L15.97 14.15C16.91 12.93 17.47 11.4 17.47 9.73998C17.47 5.72998 14.22 2.47998 10.21 2.47998C6.19995 2.47998 2.94995 5.72998 2.94995 9.73998C2.94995 13.75 6.19995 17 10.21 17C11.84 17 13.34 16.46 14.55 15.55L21.28 22.28C21.48 22.48 21.79 22.48 21.99 22.28L22.7 21.57C22.9 21.37 22.9 21.06 22.7 20.86L22.69 20.87ZM4.94995 9.73998C4.94995 6.83998 7.30995 4.47998 10.21 4.47998C13.11 4.47998 15.47 6.83998 15.47 9.73998C15.47 12.64 13.11 15 10.21 15C7.30995 15 4.94995 12.64 4.94995 9.73998Z" fill="#2E2523"/>
</svg>
